<svg xmlns="http://www.w3.org/2000/svg" xmlns:xlink="http://www.w3.org/1999/xlink" width="30" height="30" viewBox="0 0 30 30"><defs><style>.a,.c{fill:#fff;}.a{stroke:#707070;}.b{clip-path:url(#a);}</style><clipPath id="a"><rect class="a" width="30" height="30" transform="translate(1319 26)"/></clipPath></defs><g class="b" transform="translate(-1319 -26)"><g transform="translate(1323.764 30.764)"><g transform="translate(8.112 5.722)"><path class="c" d="M29.473,22.76a1.421,1.421,0,0,0-.547-.531,4.848,4.848,0,0,0-.707-.3,6.915,6.915,0,0,0-.713-.2,1.88,1.88,0,0,1-.558-.207.393.393,0,0,1-.226-.341.479.479,0,0,1,.226-.378,1.066,1.066,0,0,1,.652-.171,2.521,2.521,0,0,1,.834.157,2.584,2.584,0,0,0,.545.157.49.49,0,0,0,.42-.282,1,1,0,0,0,.169-.5q0-.339-.608-.577a3.49,3.49,0,0,0-.925-.215V18.164a.6.6,0,1,0-1.207,0v1.26a1.8,1.8,0,0,0-.958.49,1.866,1.866,0,0,0-.539,1.339,1.367,1.367,0,0,0,.307.921,1.7,1.7,0,0,0,.746.512q.439.152.871.262a3.092,3.092,0,0,1,.74.281.517.517,0,0,1,.307.463q0,.524-.926.524a2.266,2.266,0,0,1-.812-.131,3.585,3.585,0,0,1-.552-.257.725.725,0,0,0-.349-.126.464.464,0,0,0-.381.244.844.844,0,0,0-.165.47q0,.426.664.752a3.223,3.223,0,0,0,1.046.294v1.223a.6.6,0,1,0,1.207,0V25.445A2.209,2.209,0,0,0,29.086,25a1.67,1.67,0,0,0,.608-1.366A1.634,1.634,0,0,0,29.473,22.76Z" transform="translate(-25.118 -17.56)"/></g><path class="c" d="M17.843,3.061A10.452,10.452,0,0,0,3.061,17.843,10.452,10.452,0,0,0,17.843,3.061Zm-.866,13.915A9.227,9.227,0,0,1,3.928,3.928,9.227,9.227,0,1,1,16.977,16.977Z"/><g transform="translate(2.549 2.596)"><path class="c" d="M15.948,8.193a7.9,7.9,0,1,0,7.9,7.9A7.912,7.912,0,0,0,15.948,8.193Zm0,14.575A6.672,6.672,0,1,1,22.62,16.1,6.679,6.679,0,0,1,15.948,22.768Z" transform="translate(-8.045 -8.193)"/></g></g></g></svg>