<svg xmlns="http://www.w3.org/2000/svg" xmlns:xlink="http://www.w3.org/1999/xlink" width="38" height="38" viewBox="0 0 38 38"><defs><style>.a,.c{fill:#fff;}.a{stroke:#707070;}.b{clip-path:url(#a);}</style><clipPath id="a"><rect class="a" width="38" height="38"/></clipPath></defs><g class="b"><path class="c" d="M18.591,24.591a.585.585,0,0,1-.585-.586V22.445a.585.585,0,0,1,.585-.586h1.479L15.616,17.4a.586.586,0,0,1,0-.828l1.1-1.1a.584.584,0,0,1,.827,0L22,19.927V18.446a.585.585,0,0,1,.585-.586h1.559a.585.585,0,0,1,.584.586v5.56a.585.585,0,0,1-.584.586Zm-18.006,0A.585.585,0,0,1,0,24.006v-5.56a.585.585,0,0,1,.585-.586H2.143a.585.585,0,0,1,.585.586v1.481l4.453-4.46a.584.584,0,0,1,.827,0l1.1,1.1a.586.586,0,0,1,0,.828l-4.453,4.46H6.137a.585.585,0,0,1,.585.586v1.561a.585.585,0,0,1-.585.586ZM16.719,9.124l-1.1-1.1a.586.586,0,0,1,0-.828l4.453-4.46H18.591a.585.585,0,0,1-.585-.586V.586A.585.585,0,0,1,18.591,0h5.552a.584.584,0,0,1,.584.586v5.56a.585.585,0,0,1-.584.585H22.583A.585.585,0,0,1,22,6.146V4.664l-4.453,4.46a.584.584,0,0,1-.827,0Zm-9.537,0L2.728,4.664V6.146a.585.585,0,0,1-.585.585H.585A.585.585,0,0,1,0,6.146V.586A.585.585,0,0,1,.584,0H6.137a.585.585,0,0,1,.584.586V2.147a.585.585,0,0,1-.584.586H4.658l4.453,4.46a.587.587,0,0,1,0,.828l-1.1,1.1a.584.584,0,0,1-.827,0Z" transform="translate(6.637 6.704)"/></g></svg>